<svg viewBox="0 0 256 256" xmlns="http://www.w3.org/2000/svg">
  <g stroke="var(--icon-person-border, #222)">
    <circle cy="128" cx="128" r="92" fill="var(--icon-person-bg, #666)" stroke-width="4"/>
    <g stroke-width="2" stroke-dasharray="10 6" fill="var(--icon-person, #444)" stroke-linecap="round">
      <path d="M124.528 68.325c-3.06.437-5.488.97-7.528 1.602-20.351 6.654-30.114 29.87-20.594 49.055 1.748 3.498 3.74 6.314 6.752 9.278 4.128 4.128 8.645 6.847 14.23 8.693l2.429.778 3.982 6.896c2.186 3.789 4.032 6.946 4.129 6.946.049 0 1.894-3.108 4.128-6.946l3.983-6.896 2.477-.778c15.64-5.002 25.888-20.253 24.527-36.378-1.408-15.834-12.773-28.56-28.316-31.716-2.137-.437-8.548-.777-10.199-.534Zm6.363 10.053c7.965 1.652 13.065 9.375 11.074 16.66-1.214 4.323-4.323 8.548-8.208 11.122l-1.361.874v5.78h-8.159v-9.519l1.359-.632c7.043-3.448 10.492-10.442 7.14-14.376-1.165-1.36-2.623-1.992-4.614-1.992-2.088 0-3.205.389-4.468 1.554-.923.874-1.506 1.943-1.846 3.498l-.194.68h-8.16v-.778c0-2.185 1.214-5.342 2.915-7.576 3.254-4.323 9.033-6.412 14.522-5.295Zm-.534 40.07c1.165.292 2.671 1.7 3.205 2.914.243.535.437 1.458.437 2.137 0 2.186-1.02 3.789-2.914 4.663-4.42 2.089-9.131-2.331-7.14-6.702.632-1.409 1.263-2.04 2.672-2.72 1.311-.583 2.331-.68 3.74-.292Z"/>
      <path d="M108.403 139.285c-2.672 1.36-6.606 3.108-13.065 5.828-3.06 1.263-7.14 3.06-8.937 3.982-3.011 1.458-3.497 1.798-5.148 3.449-5.586 5.586-9.86 15.882-10.443 25.305l-.146 2.234 2.283.874c8.548 3.254 20.545 5.295 39.148 6.509 5.779.388 25.644.388 31.667 0 18.262-1.166 30.744-3.255 39.293-6.509l2.282-.874-.145-2.332c-.632-9.227-5.003-19.767-10.492-25.207-1.699-1.651-2.185-1.991-5.148-3.449-1.846-.874-5.586-2.573-8.451-3.739-6.8-2.817-10.005-4.274-13.016-5.731l-2.477-1.263-1.506.68c-.826.388-2.381.971-3.497 1.311l-1.991.632-5.344 9.033c-2.865 4.955-5.245 9.083-5.342 9.083-.049 0-2.477-4.08-5.343-9.131l-5.246-9.083-1.262-.388c-.68-.195-2.234-.777-3.4-1.311-1.165-.486-2.185-.923-2.234-.875-.097 0-1.02.437-2.04.972Z"/>
    </g>
  </g>
</svg>
